<svg width="31" height="31" viewBox="0 0 31 31" fill="none" xmlns="http://www.w3.org/2000/svg">
<g clip-path="url(#clip0_568_155)">
<path d="M30.7681 5.12799H0V25.6403H30.7681V5.12799Z" fill="#F0F0F0"/>
<path d="M17.307 5.12781H13.461V13.4608H0V17.3068H13.461V25.6398H17.307V17.3068H30.7681V13.4608H17.307V5.12781Z" fill="#D80027"/>
<path d="M23.6641 18.9511L30.7681 22.8978V18.9511H23.6641Z" fill="#0052B4"/>
<path d="M18.7284 18.9511L30.7681 25.6398V23.7484L22.133 18.9511H18.7284Z" fill="#0052B4"/>
<path d="M27.5611 25.6398L18.7284 20.7323V25.6398H27.5611Z" fill="#0052B4"/>
<path d="M18.7284 18.9511L30.7681 25.6398V23.7484L22.133 18.9511H18.7284Z" fill="#F0F0F0"/>
<path d="M18.7284 18.9511L30.7681 25.6398V23.7484L22.133 18.9511H18.7284Z" fill="#D80027"/>
<path d="M5.42894 18.951L0 21.9671V18.951H5.42894Z" fill="#0052B4"/>
<path d="M12.0397 19.8015V25.6397H1.53186L12.0397 19.8015Z" fill="#0052B4"/>
<path d="M8.63507 18.9511L0 23.7484V25.6398L12.0397 18.9511H8.63507Z" fill="#D80027"/>
<path d="M7.104 11.8165L0 7.86978V11.8165H7.104Z" fill="#0052B4"/>
<path d="M12.0397 11.8165L0 5.12781V7.0192L8.63507 11.8165H12.0397Z" fill="#0052B4"/>
<path d="M3.20703 5.12781L12.0398 10.0353V5.12781H3.20703Z" fill="#0052B4"/>
<path d="M12.0397 11.8165L0 5.12781V7.0192L8.63507 11.8165H12.0397Z" fill="#F0F0F0"/>
<path d="M12.0397 11.8165L0 5.12781V7.0192L8.63507 11.8165H12.0397Z" fill="#D80027"/>
<path d="M25.3391 11.8166L30.7681 8.80051V11.8166H25.3391Z" fill="#0052B4"/>
<path d="M18.7284 10.9661V5.12787H29.2362L18.7284 10.9661Z" fill="#0052B4"/>
<path d="M22.133 11.8165L30.7681 7.0192V5.12781L18.7284 11.8165H22.133Z" fill="#D80027"/>
</g>
<defs>
<clipPath id="clip0_568_155">
<rect width="30.7681" height="30.7681" fill="white"/>
</clipPath>
</defs>
</svg>
