<?xml version="1.0" standalone="no"?>
<!DOCTYPE svg PUBLIC "-//W3C//DTD SVG 20010904//EN"
 "http://www.w3.org/TR/2001/REC-SVG-20010904/DTD/svg10.dtd">
<svg version="1.0" xmlns="http://www.w3.org/2000/svg"
 width="657.000000pt" height="128.000000pt" viewBox="0 0 657.000000 128.000000"
 preserveAspectRatio="xMidYMid meet">
<metadata>
Created by potrace 1.16, written by Peter Selinger 2001-2019
</metadata>
<g transform="translate(0.000000,128.000000) scale(0.100000,-0.100000)"
fill="#000000" stroke="none">
<path d="M0 640 l0 -640 3285 0 3285 0 0 640 0 640 -3285 0 -3285 0 0 -640z
m6450 0 l0 -520 -3165 0 -3165 0 0 520 0 520 3165 0 3165 0 0 -520z"/>
<path d="M325 881 c-70 -32 -105 -86 -105 -161 0 -110 67 -169 204 -179 86 -7
113 -24 87 -55 -11 -13 -38 -16 -152 -16 l-139 0 0 -70 0 -70 150 0 c168 0
199 8 243 59 52 62 57 148 13 213 -39 58 -69 72 -163 78 -67 4 -88 9 -97 23
-8 12 -8 22 0 35 9 14 29 18 108 20 l96 3 0 69 0 70 -102 0 c-79 0 -112 -5
-143 -19z"/>
<path d="M797 886 c-50 -18 -76 -42 -98 -91 -16 -35 -19 -68 -19 -252 l0 -213
70 0 70 0 0 203 c0 203 4 227 36 227 7 0 20 -7 28 -16 14 -13 16 -47 16 -215
l0 -199 65 0 65 0 0 199 c0 168 2 202 16 215 8 9 21 16 28 16 32 0 36 -24 36
-227 l0 -203 70 0 70 0 0 213 c0 201 -1 215 -22 257 -43 84 -137 119 -219 83
-43 -19 -45 -19 -84 -2 -48 22 -77 23 -128 5z"/>
<path d="M1348 618 l-75 -283 65 -3 c36 -2 68 1 71 7 4 5 22 67 40 138 18 70
37 132 41 136 4 4 24 -57 45 -138 l38 -145 69 0 c37 0 68 3 68 8 0 4 -33 131
-74 282 l-73 275 -70 3 -70 3 -75 -283z"/>
<path d="M1740 615 l0 -285 65 0 65 0 0 105 0 105 75 0 c91 0 95 -5 95 -124
l0 -86 65 0 65 0 0 113 c0 79 -4 120 -15 140 -13 25 -13 32 0 57 19 37 19 123
1 158 -19 37 -55 68 -98 87 -28 11 -74 15 -178 15 l-140 0 0 -285z"/>
<path d="M2200 830 l0 -70 65 0 65 0 0 -215 0 -215 65 0 65 0 0 215 0 215 65
0 65 0 0 70 0 70 -195 0 -195 0 0 -70z"/>
<path d="M2620 616 l0 -286 150 0 c168 0 199 8 243 59 47 57 56 134 22 200
-10 20 -9 29 4 55 39 76 8 181 -67 228 -34 21 -51 23 -194 26 l-158 4 0 -286z"/>
<path d="M3197 886 c-95 -34 -116 -85 -117 -273 0 -152 6 -182 48 -227 40 -42
81 -56 172 -56 91 0 132 14 172 56 42 45 48 75 48 227 0 116 -4 149 -19 182
-34 74 -92 104 -201 104 -36 0 -82 -6 -103 -13z m172 -140 c8 -9 11 -56 9
-142 l-3 -129 -75 0 -75 0 -3 129 c-2 86 1 133 9 142 7 9 32 14 69 14 37 0 62
-5 69 -14z"/>
<path d="M3525 880 c4 -12 31 -73 61 -136 30 -64 54 -122 54 -130 0 -8 -27
-74 -60 -146 -33 -71 -60 -132 -60 -134 0 -2 35 -4 78 -4 l77 0 29 75 c16 41
32 73 35 70 4 -2 20 -36 35 -74 l28 -71 79 0 78 0 -18 43 c-10 23 -40 87 -65
141 l-46 99 61 131 c33 72 63 137 66 144 4 9 -15 12 -75 12 l-79 0 -18 -47
c-10 -27 -25 -64 -33 -83 l-14 -35 -32 80 -32 80 -78 3 c-75 3 -77 2 -71 -18z"/>
<path d="M3980 615 l0 -285 155 0 c169 0 188 5 237 57 42 44 48 74 48 229 0
122 -3 151 -19 182 -43 84 -88 101 -278 102 l-143 0 0 -285z m289 131 c8 -9
11 -56 9 -142 l-3 -129 -77 -3 -78 -3 0 146 0 145 69 0 c46 0 72 -4 80 -14z"/>
<path d="M4440 615 l0 -285 70 0 70 0 0 285 0 285 -70 0 -70 0 0 -285z"/>
<path d="M4725 889 c-16 -4 -42 -20 -57 -34 -49 -45 -61 -82 -66 -197 -8 -193
12 -259 93 -305 33 -19 55 -23 128 -23 101 0 150 19 189 72 20 29 23 46 26
156 l4 122 -91 0 -91 0 0 -70 c0 -68 1 -70 25 -70 27 0 32 -18 15 -51 -9 -16
-22 -19 -73 -19 -36 0 -68 5 -75 12 -8 8 -12 51 -12 129 0 141 5 149 86 149
42 0 58 -5 71 -20 14 -16 30 -20 80 -20 61 0 63 1 63 25 0 54 -47 112 -112
140 -41 16 -153 19 -203 4z"/>
<path d="M5070 615 l0 -285 65 0 65 0 0 285 0 285 -65 0 -65 0 0 -285z"/>
<path d="M5230 830 l0 -70 65 0 65 0 0 -215 0 -215 70 0 70 0 0 215 0 215 60
0 60 0 0 70 0 70 -195 0 -195 0 0 -70z"/>
<path d="M5706 848 c-23 -83 -136 -506 -136 -512 0 -3 31 -6 68 -6 l69 0 38
145 c21 81 41 142 45 138 4 -4 17 -46 29 -93 13 -47 29 -109 38 -137 l14 -53
71 0 c52 0 69 3 65 13 -6 15 -147 545 -147 552 0 3 -31 5 -69 5 l-70 0 -15
-52z"/>
<path d="M6030 686 c0 -228 4 -252 48 -300 41 -43 81 -56 177 -56 l85 0 0 70
0 70 -79 0 c-63 0 -80 3 -85 16 -3 9 -6 105 -6 215 l0 199 -70 0 -70 0 0 -214z"/>
</g>
</svg>
